<svg width="64" height="64" viewBox="0 0 64 64" fill="none" xmlns="http://www.w3.org/2000/svg">
<path d="M42 10H14C10.6863 10 8 12.6863 8 16V48C8 51.3137 10.6863 54 14 54H42C45.3137 54 48 51.3137 48 48V16C48 12.6863 45.3137 10 42 10Z" fill="#3B82F6"/>
<path d="M46 6H18C14.6863 6 12 8.68629 12 12V44C12 47.3137 14.6863 50 18 50H46C49.3137 50 52 47.3137 52 44V12C52 8.68629 49.3137 6 46 6Z" fill="white" stroke="#1E3A8A" stroke-width="2"/>
<path d="M32 31C35.866 31 39 27.866 39 24C39 20.134 35.866 17 32 17C28.134 17 25 20.134 25 24C25 27.866 28.134 31 32 31Z" fill="#FACC15"/>
<path d="M33 31H31C29.8954 31 29 31.8954 29 33V35C29 36.1046 29.8954 37 31 37H33C34.1046 37 35 36.1046 35 35V33C35 31.8954 34.1046 31 33 31Z" fill="#1F2937"/>
<path d="M40.5 40H23.5C22.6716 40 22 40.6716 22 41.5C22 42.3284 22.6716 43 23.5 43H40.5C41.3284 43 42 42.3284 42 41.5C42 40.6716 41.3284 40 40.5 40Z" fill="#9CA3AF"/>
<path d="M36.5 45H27.5C26.6716 45 26 45.6716 26 46.5C26 47.3284 26.6716 48 27.5 48H36.5C37.3284 48 38 47.3284 38 46.5C38 45.6716 37.3284 45 36.5 45Z" fill="#9CA3AF"/>
</svg>
