<svg width="20" height="18" viewBox="0 0 20 18" fill="none" xmlns="http://www.w3.org/2000/svg">
<path d="M0.999997 15C0.734781 15 0.480427 14.8946 0.292891 14.7071C0.105354 14.5196 -2.49421e-06 14.2652 -2.44784e-06 14L-1.74846e-07 1C-1.28474e-07 0.734784 0.105357 0.48043 0.292893 0.292893C0.48043 0.105357 0.734784 1.28474e-07 1 1.74846e-07L6 1.04907e-06C7.06087 1.23456e-06 8.07828 0.421429 8.82843 1.17157C9.57857 1.92172 10 2.93914 10 4C10 2.93914 10.4214 1.92172 11.1716 1.17157C11.9217 0.421429 12.9391 2.26235e-06 14 2.44784e-06L19 3.32207e-06C19.2652 3.36844e-06 19.5196 0.10536 19.7071 0.292897C19.8946 0.480433 20 0.734787 20 1L20 14C20 14.2652 19.8946 14.5196 19.7071 14.7071C19.5196 14.8946 19.2652 15 19 15L13 15C12.2043 15 11.4413 15.3161 10.8787 15.8787C10.3161 16.4413 10 17.2044 10 18C10 17.2044 9.68393 16.4413 9.12132 15.8787C8.55871 15.3161 7.79565 15 7 15L0.999997 15Z" fill="url(#paint0_linear_1735_9050)"/>
<path d="M10 6L11.0804 8.91964L14 10L11.0804 11.0804L10 14L8.91964 11.0804L6 10L8.91964 8.91964L10 6Z" fill="black"/>
<defs>
<linearGradient id="paint0_linear_1735_9050" x1="0" y1="0" x2="20" y2="18" gradientUnits="userSpaceOnUse">
<stop stop-color="white"/>
<stop offset="0.413462" stop-color="#718FAC"/>
<stop offset="1" stop-color="#FF5500"/>
</linearGradient>
</defs>
</svg>
